Coordinates
version=1
nRows=17
nColumns=24
inDegrees=yes

Units are S.I. units (second, meters, Newtons, ...)
Angles are in degrees.

endheader
time	pelvis_tilt	pelvis_list	pelvis_rotation	pelvis_tx	pelvis_ty	pelvis_tz	hip_flexion_r	hip_adduction_r	hip_rotation_r	knee_angle_r	ankle_angle_r	subtalar_angle_r	mtp_angle_r	hip_flexion_l	hip_adduction_l	hip_rotation_l	knee_angle_l	ankle_angle_l	subtalar_angle_l	mtp_angle_l	lumbar_extension	lumbar_bending	lumbar_rotation
      8.36000000	      7.48336971	     -2.66296443	      2.65042612	     -0.15977676	      0.94686683	      0.20419196	     -3.66657667	      8.55728307	     -3.58106996	     -6.73073600	     10.34339989	     -0.04019248	      0.00000000	      6.08584961	     -1.67933520	      0.26324630	    -51.16855350	      3.37458822	    -17.87007659	      0.00000000	    -23.37153428	      3.30746831	     -2.14166896
      8.37000000	      7.41009084	     -2.51257972	      2.43033143	     -0.15175364	      0.94711352	      0.20461194	     -4.23794969	      8.42867912	     -3.28393645	     -6.57683883	     10.75651775	      0.03417987	      0.00000000	      6.92691932	     -1.43910219	      0.25169582	    -49.89690554	      4.31616101	    -17.34965854	      0.00000000	    -23.40955435	      3.00603249	     -1.81043024
      8.38000000	      7.32377831	     -2.38740734	      2.22506262	     -0.14374864	      0.94724098	      0.20495612	     -4.80831734	      8.32348802	     -2.96884661	     -6.39114876	     11.12273911	      0.04400239	      0.00000000	      7.71675110	     -1.23896069	      0.21408184	    -48.39400609	      5.18541227	    -16.61101264	      0.00000000	    -23.43170161	      2.75786163	     -1.51875131
      8.39000000	      7.22564166	     -2.29235843	      2.03135468	     -0.13574926	      0.94723525	      0.20524739	     -5.37598534	      8.24786632	     -2.62204392	     -6.18537444	     11.48089213	      0.00702673	      0.00000000	      8.44852159	     -1.08268716	      0.15222015	    -46.66362070	      5.93606762	    -15.77007857	      0.00000000	    -23.43450791	      2.54979496	     -1.25086073
      8.40000000	      7.11104761	     -2.23957834	      1.86083281	     -0.12773555	      0.94707079	      0.20544975	     -5.94948131	      8.21312996	     -2.27087896	     -5.92873158	     11.75362793	     -0.10486649	      0.00000000	      9.13341491	     -0.98173790	      0.06381902	    -44.73372302	      6.68202720	    -14.87016427	      0.00000000	    -23.41213825	      2.41659077	     -1.03511872
      8.41000000	      6.99758885	     -2.22155649	      1.69720654	     -0.11970656	      0.94677807	      0.20557441	     -6.53961531	      8.20784472	     -1.89469727	     -5.64746334	     12.07978727	     -0.19432418	      0.00000000	      9.74290290	     -0.91759829	     -0.03546430	    -42.60017818	      7.23921778	    -13.98623318	      0.00000000	    -23.38886528	      2.34112099	     -0.79421848
      8.42000000	      6.87960727	     -2.24522591	      1.55111655	     -0.11161591	      0.94634118	      0.20562634	     -7.15030542	      8.24044773	     -1.54509426	     -5.31990566	     12.37073778	     -0.29202265	      0.00000000	     10.28572023	     -0.90270197	     -0.15417905	    -40.28619272	      7.76182369	    -13.06540296	      0.00000000	    -23.34168602	      2.32780891	     -0.58869293
      8.43000000	      6.76629498	     -2.30404344	      1.41532852	     -0.10346552	      0.94578231	      0.20559945	     -7.78697296	      8.30076502	     -1.21498726	     -4.95663252	     12.66518591	     -0.36958043	      0.00000000	     10.74946738	     -0.92479660	     -0.28283990	    -37.80152339	      8.20413994	    -12.07593034	      0.00000000	    -23.28759045	      2.37245479	     -0.38635191
      8.44000000	      6.64130655	     -2.38882405	      1.29878594	     -0.09523286	      0.94508583	      0.20548541	     -8.43741755	      8.37994939	     -0.90510447	     -4.54826115	     12.91416663	     -0.46214578	      0.00000000	     11.15707876	     -0.96952545	     -0.40221672	    -35.17215750	      8.60294986	    -10.93097717	      0.00000000	    -23.20176324	      2.46505978	     -0.21411262
      8.45000000	      6.55269739	     -2.50766036	      1.17444088	     -0.08691225	      0.94433240	      0.20533250	     -9.14067627	      8.48353637	     -0.61805103	     -4.12811452	     13.22734615	     -0.45426354	      0.00000000	     11.44317969	     -1.04068741	     -0.48169784	    -32.39182392	      8.83493370	     -9.70201757	      0.00000000	    -23.14659023	      2.59407699	      0.01419404
      8.46000000	      6.45668471	     -2.63992023	      1.05867862	     -0.07849729	      0.94346445	      0.20510661	     -9.85454023	      8.59084876	     -0.35812208	     -3.68244951	     13.51924211	     -0.42587865	      0.00000000	     11.66741702	     -1.11581483	     -0.51198423	    -29.49734275	      8.96960034	     -8.30126626	      0.00000000	    -23.06659405	      2.75505141	      0.23629423
      8.47000000	      6.33451345	     -2.79613632	      0.95434844	     -0.06997920	      0.94245262	      0.20483241	    -10.55639362	      8.71664687	     -0.10662547	     -3.21734609	     13.76744591	     -0.41182343	      0.00000000	     11.85936973	     -1.21173581	     -0.48622990	    -26.52255571	      8.98228487	     -6.76126495	      0.00000000	    -22.93469972	      2.94673750	      0.44942297
      8.48000000	      6.25897855	     -2.95968095	      0.82116034	     -0.06136548	      0.94140749	      0.20454556	    -11.31690832	      8.83569546	      0.15435073	     -2.75469992	     14.07034994	     -0.33183506	      0.00000000	     11.91321279	     -1.30430677	     -0.36928950	    -23.44274139	      8.75059629	     -5.39332527	      0.00000000	    -22.84894491	      3.13589166	      0.74753218
      8.49000000	      6.15376240	     -3.14679036	      0.68443823	     -0.05268030	      0.94021708	      0.20422740	    -12.04110853	      8.97036079	      0.41158474	     -2.31182645	     14.33464137	     -0.25120798	      0.00000000	     11.94675956	     -1.42379342	     -0.18175279	    -20.33428851	      8.36068931	     -4.11655350	      0.00000000	    -22.72145405	      3.35615891	      1.04993606
      8.50000000	      6.00595036	     -3.35239454	      0.53887803	     -0.04392333	      0.93886455	      0.20389748	    -12.71179236	      9.11666569	      0.65610915	     -1.89464216	     14.62111699	     -0.15968794	      0.00000000	     11.98188261	     -1.57127856	      0.04923826	    -17.22867123	      7.73396040	     -3.12760900	      0.00000000	    -22.53018012	      3.59571416	      1.36091052
      8.51000000	      5.91303892	     -3.58687699	      0.35503636	     -0.03511503	      0.93748725	      0.20359452	    -13.43742639	      9.27824502	      0.94011657	     -1.50233378	     14.88673288	     -0.04453823	      0.00000000	     11.91618011	     -1.77750457	      0.20949765	    -14.17030163	      7.06116677	     -2.35242549	      0.00000000	    -22.41336777	      3.85870240	      1.76344117
      8.52000000	      5.82209820	     -3.84140891	      0.15375907	     -0.02627113	      0.93602278	      0.20329104	    -14.14897077	      9.45094168	      1.23241276	     -1.15275750	     15.16086393	      0.07016329	      0.00000000	     11.83450123	     -2.02781196	      0.23363433	    -11.22617864	      6.31520190	     -1.82766601	      0.00000000	    -22.30286188	      4.14309597	      2.19544086
